<svg xmlns="http://www.w3.org/2000/svg" viewBox="0 0 60 60"><path fill="#777" d="M51.209 51.209C57.036 45.332 60 38.279 60 30s-2.964-15.332-8.791-21.21C45.332 2.964 38.279 0 30 0S14.668 2.964 8.79 8.79C2.964 14.668 0 21.721 0 30s2.964 15.332 8.79 21.209C14.668 57.087 21.721 60 30 60s15.332-2.913 21.209-8.791z"/><path fill="#fff" d="M26.592 22.697a9.788 9.788 0 0 0-3.153-3.132c-1.311-.821-2.959-1.231-4.946-1.231-1.527 0-2.93.288-4.211.864a9.88 9.88 0 0 0-3.326 2.419c-.936 1.037-1.663 2.261-2.181 3.671-.518 1.411-.778 2.966-.778 4.665.057 1.699.309 3.269.756 4.708.446 1.44 1.116 2.678 2.009 3.715.892 1.037 1.994 1.843 3.304 2.419 1.31.576 2.858.864 4.643.864 2.534 0 4.636-.633 6.306-1.901 1.67-1.267 2.75-2.817 3.24-5.323h-3.628c-.317 1.469-.972 2.227-1.965 2.947-.993.72-2.268 1.08-3.823 1.08-1.209 0-2.261-.201-3.153-.605-.893-.403-1.627-.943-2.203-1.62a6.313 6.313 0 0 1-1.253-2.333c-.259-.878-.375-2.031-.346-3.01H28.6c.057-1.353-.065-2.555-.367-4.052a12.371 12.371 0 0 0-1.641-4.145zM11.884 27.88a7.633 7.633 0 0 1 .561-2.441 6.48 6.48 0 0 1 1.296-2.008 5.946 5.946 0 0 1 1.965-1.361c.763-.331 1.62-.497 2.57-.497.921 0 1.764.166 2.527.497.763.331 1.425.778 1.987 1.339s1.008 1.231 1.339 2.008c.331.778.525 1.598.583 2.462.001.001-12.828.001-12.828.001zm31.102 1.21l8.02-10.723H46.41l-5.812 8.155-5.587-8.155H30.1l8.11 11.038-8.74 12.255h4.641l6.488-9.642 6.488 9.642h4.911l-9.012-12.57z"/></svg>